<svg xmlns="http://www.w3.org/2000/svg" version="1.1" xmlns:xlink="http://www.w3.org/1999/xlink" width="512" height="512" x="0" y="0" viewBox="0 0 512 512" style="enable-background:new 0 0 512 512" xml:space="preserve" class=""><g><path d="M124.841 345.55h0C60.036 345.55 7.5 334.823 7.5 270.017V144.95h234.682v125.067c0 64.806-52.535 75.533-117.341 75.533zM81.977 235.279v13.508M167.705 235.279v13.508M7.5 144.95V86.926c0-8.734 7.08-15.815 15.815-15.815h0a15.815 15.815 0 0 1 13.429 7.462l41.283 66.376H7.5zM242.182 144.95V86.926c0-8.734-7.08-15.815-15.815-15.815h0a15.815 15.815 0 0 0-13.429 7.462l-41.283 66.376h70.527zM115.203 248.787h19.276M124.841 248.787v38.026" style="stroke-width:15;stroke-linecap:round;stroke-linejoin:round;stroke-miterlimit:10;" fill="none" stroke="#ffffff" stroke-width="15" stroke-linecap="round" stroke-linejoin="round" stroke-miterlimit="10" data-original="#000000" opacity="1" class=""></path><path d="M100.865 289.97s12.535 8.156 23.976-3.55M148.818 289.97s-12.535 8.156-23.976-3.55M33.635 248.311H7.5M38.738 278.14l-28.636 14.595M51.839 307.487l-18.204 19.704M216.047 248.311h26.135M210.945 278.14l28.636 14.595M197.843 307.487l18.204 19.704M94.216 345.55h61.25c33.489 0 60.638 27.148 60.638 60.638v57.774c0 7.395-5.995 13.39-13.39 13.39H46.969c-7.395 0-13.39-5.995-13.39-13.39v-57.774c-.001-33.489 27.148-60.638 60.637-60.638z" style="stroke-width:15;stroke-linecap:round;stroke-linejoin:round;stroke-miterlimit:10;" fill="none" stroke="#ffffff" stroke-width="15" stroke-linecap="round" stroke-linejoin="round" stroke-miterlimit="10" data-original="#000000" opacity="1" class=""></path><path d="M124.841 406.553v70.8H83.139v-70.8M166.543 477.353h-41.702v-70.8M166.543 406.553v35.711M378.699 105.809H332.75M504.5 105.809v139.79c0 72.44-58.72 84.43-131.16 84.43s-131.16-11.99-131.16-84.43v-139.79M332.752 211.68v12.792M413.931 211.68v12.792M364.215 224.472h18.253M373.341 224.472v29.182M339.11 330.03h68.462c37.433 0 67.778 30.345 67.778 67.778v66.154c0 7.395-5.995 13.39-13.39 13.39H284.722c-7.395 0-13.39-5.995-13.39-13.39v-66.154c0-37.433 30.345-67.778 67.778-67.778z" style="stroke-width:15;stroke-linecap:round;stroke-linejoin:round;stroke-miterlimit:10;" fill="none" stroke="#ffffff" stroke-width="15" stroke-linecap="round" stroke-linejoin="round" stroke-miterlimit="10" data-original="#000000" opacity="1" class=""></path><path d="M362.162 398.216v79.137h-40.636v-79.137M434.078 398.216v79.137h-40.636v-79.137M332.752 253.654h81.179M354.273 253.654h38.136v25.774c0 10.531-8.537 19.068-19.068 19.068h0c-10.531 0-19.068-8.537-19.068-19.068v-25.774zM242.182 105.808V67.897c0-18.363 14.886-33.249 33.249-33.249h24.071c18.363 0 33.249 14.886 33.249 33.249v37.911" style="stroke-width:15;stroke-linecap:round;stroke-linejoin:round;stroke-miterlimit:10;" fill="none" stroke="#ffffff" stroke-width="15" stroke-linecap="round" stroke-linejoin="round" stroke-miterlimit="10" data-original="#000000" opacity="1" class=""></path><path d="M332.752 73.922v46.107c0 13.764-11.158 24.922-24.922 24.922h0c-13.764 0-24.922-11.158-24.922-24.922V73.922M504.5 105.808V67.897c0-18.363-14.886-33.249-33.249-33.249H447.18c-18.363 0-33.249 14.886-33.249 33.249v37.911" style="stroke-width:15;stroke-linecap:round;stroke-linejoin:round;stroke-miterlimit:10;" fill="none" stroke="#ffffff" stroke-width="15" stroke-linecap="round" stroke-linejoin="round" stroke-miterlimit="10" data-original="#000000" opacity="1" class=""></path><path d="M413.931 73.922v46.107c0 13.764 11.158 24.922 24.922 24.922h0c13.764 0 24.922-11.158 24.922-24.922V73.922" style="stroke-width:15;stroke-linecap:round;stroke-linejoin:round;stroke-miterlimit:10;" fill="none" stroke="#ffffff" stroke-width="15" stroke-linecap="round" stroke-linejoin="round" stroke-miterlimit="10" data-original="#000000" opacity="1" class=""></path></g></svg>