<?xml version="1.0" encoding="UTF-8" standalone="no"?>
<!-- Created with Inkscape (http://www.inkscape.org/) -->

<svg
   version="1.1"
   id="svg2"
   width="666.66669"
   height="666.66669"
   viewBox="0 0 666.66669 666.66669"
   sodipodi:docname="06.eps"
   xmlns:inkscape="http://www.inkscape.org/namespaces/inkscape"
   xmlns:sodipodi="http://sodipodi.sourceforge.net/DTD/sodipodi-0.dtd"
   xmlns="http://www.w3.org/2000/svg"
   xmlns:svg="http://www.w3.org/2000/svg">
  <defs
     id="defs6" />
  <sodipodi:namedview
     id="namedview4"
     pagecolor="#ffffff"
     bordercolor="#000000"
     borderopacity="0.25"
     inkscape:showpageshadow="2"
     inkscape:pageopacity="0.0"
     inkscape:pagecheckerboard="0"
     inkscape:deskcolor="#d1d1d1" />
  <g
     id="g8"
     inkscape:groupmode="layer"
     inkscape:label="ink_ext_XXXXXX"
     transform="matrix(1.3333333,0,0,-1.3333333,0,666.66667)">
    <g
       id="g10"
       transform="scale(0.1)">
      <path
         d="m 1328.15,2500 c 0,647.19 524.66,1171.85 1171.85,1171.85 647.19,0 1171.85,-524.66 1171.85,-1171.85 0,-647.19 -524.66,-1171.85 -1171.85,-1171.85 -647.19,0 -1171.85,524.66 -1171.85,1171.85"
         style="fill:#ccd5d5;fill-opacity:1;fill-rule:nonzero;stroke:none"
         id="path14" />
      <path
         d="m 2568.04,2537.32 c -0.3,-0.35 -0.42,-0.81 -0.52,-1.26 -0.84,-3.97 -0.6,-10.79 1.19,-14.54 2.41,-5.06 7.09,-9.71 12.76,-10.77 2.24,-0.42 6.63,-0.54 8.1,1.44 0.11,0.16 0.21,0.33 0.28,0.52 1.65,3.89 -3.92,11.62 -6.09,14.49 -1.64,2.18 -12.51,13.91 -15.72,10.12"
         style="fill:#f1f2e3;fill-opacity:1;fill-rule:nonzero;stroke:none"
         id="path16" />
      <path
         d="m 2605.95,2561.57 c -1.17,-0.06 -2.41,-0.12 -3.44,-0.69 -3.35,-1.84 -3.1,-7.75 -2.51,-10.96 0.67,-3.73 2.96,-6.84 5.75,-9.3 6.75,-5.92 15.44,-7.61 24.09,-8.29 1.55,-0.11 3.22,0.06 4.41,1 0.08,0.07 0.15,0.14 0.22,0.21 0.73,0.67 1.14,1.6 1.5,2.51 3,7.58 5.97,20.66 -3.47,24.76 -7.29,3.64 -18.78,1.08 -26.55,0.76"
         style="fill:#f1f2e3;fill-opacity:1;fill-rule:nonzero;stroke:none"
         id="path18" />
      <path
         d="m 2662.31,2718.44 c 5.4,2.69 10.33,6.7 13.12,12.05 4.75,9.12 1.39,17.61 -7.85,21.47 -21.25,8.9 -47.7,9.78 -70.39,9.06 -13.88,-0.44 -31.89,-0.45 -42.88,-10.29 -7.49,-6.71 -10.63,-17.9 -7.69,-27.52 1.57,-5.13 4.11,-8.9 7.31,-11.64 11.45,-9.85 29.86,-7.32 43.79,-6.3 15.98,1.18 31.8,3.98 47.4,7.61 5.89,1.37 11.79,2.86 17.19,5.56"
         style="fill:#f1f2e3;fill-opacity:1;fill-rule:nonzero;stroke:none"
         id="path20" />
      <path
         d="m 2838.37,2493.45 c -15.29,0.29 -38.91,-5.86 -41.11,-24.04 -0.87,-7.24 3.76,-10.44 9.97,-12.78 7.28,-2.74 15.36,-2.56 22.87,-0.91 4.14,0.92 9.38,2.2 13.57,4.52 1.88,1.05 3.55,2.3 4.81,3.81 3.72,4.49 4.63,12.34 3.6,17.94 -1.28,6.99 -6.57,11.33 -13.71,11.46"
         style="fill:#f1f2e3;fill-opacity:1;fill-rule:nonzero;stroke:none"
         id="path22" />
      <path
         d="m 2958.97,2362.38 c -17.17,-18.37 -48.59,0.79 -48.2,23.26 0.23,12.54 17.2,26.82 28.7,27.6 16.3,1.11 31.85,-11.7 31.73,-28.53 -0.07,-9.13 -4.83,-17.2 -12.23,-22.33 z m -11.34,-113.91 c -7.42,-5.31 -16.75,-6.19 -25.25,-3.23 -24.95,3.11 -27.92,39.79 -9.49,52.68 10.27,7.19 31.81,1.84 39.19,-7.01 10.48,-12.54 9.25,-32.64 -4.45,-42.44 z m -107.39,-26.69 c -17.17,-18.37 -48.59,0.78 -48.2,23.26 0.23,12.54 17.2,26.82 28.7,27.6 16.3,1.1 31.85,-11.7 31.73,-28.55 -0.07,-9.12 -4.83,-17.19 -12.23,-22.31 z m 79.5,632.51 c -24.25,48.65 -48.33,98.33 -67.46,149.6 8.45,-48.77 20.06,-100.61 34.67,-148.23 21.83,-61.51 94.16,-132.78 85.56,-229.32 -0.01,-0.14 -0.03,-0.26 -0.04,-0.4 -0.23,-4.08 -0.55,-8.16 -1,-12.22 0,-21.22 -9.93,-44.16 -17,-63.79 -10.68,-29.67 -23.55,-58.56 -38.46,-86.36 -1.27,-2.35 -2.57,-4.71 -3.87,-7.07 -20.36,-38.17 -70.26,-64.21 -115.09,-78.63 -1.01,-0.25 -2.08,-0.58 -3.17,-0.96 -15.14,-4.7 -29.52,-8.07 -41.94,-10.1 -28.21,-2.86 -48.84,2.41 -48.84,2.41 l -25.52,-87.76 c 0,0 16.88,-53.09 51.03,-92.5 l 0.04,0.05 c 16.45,-20.65 41.71,-34.77 66.08,-48.4 0.14,-0.09 0.28,-0.15 0.44,-0.24 14.73,-9.55 31.97,-15.24 49.53,-17.18 53.19,-7.99 93.16,37.51 124.34,74.01 68.15,82.31 76.55,195.73 65.7,297.83 -16.38,125.45 -56.2,247.35 -115,359.26"
         style="fill:#f1f2e3;fill-opacity:1;fill-rule:nonzero;stroke:none"
         id="path24" />
      <path
         d="m 2647.55,2225.64 c 0,0 -33.89,-3.1 -87.78,-21.37 -19.87,-7.59 -47.38,-16.83 -97.65,-29.71 -77.82,-19.95 -110.65,-16.97 -137.33,-11.27 3.89,-4.76 8.03,-8.74 14.09,-12.65 12.09,-7.78 23.76,-15.42 36.21,-22.71 6.27,-3.68 12.55,-7.35 18.91,-10.86 12.88,-7.1 26.15,-13.48 39.73,-19.11 45.51,-18.91 94.43,-29.51 143.62,-31.88 24.7,-1.19 49.52,-0.28 74.05,2.82 12.2,1.53 24.35,3.61 36.36,6.26 11.62,2.55 22.98,6.48 34.61,8.74 0.75,0.13 1.48,0.3 2.21,0.47 4.43,1.09 8.7,2.76 12.95,4.42 12.58,4.91 25.16,9.83 37.72,14.75 -0.14,-0.05 -0.85,0.29 -1.73,0.78 -88.31,38.5 -125.97,121.32 -125.97,121.32"
         style="fill:#f1f2e3;fill-opacity:1;fill-rule:nonzero;stroke:none"
         id="path26" />
      <path
         d="m 2444.52,3302.75 c 0.01,0.57 0.03,1.13 0.03,1.69 0.36,0.06 0.76,0.21 1.13,0.31 -0.39,-0.66 -0.77,-1.35 -1.16,-2 z m 36.25,107.95 c -2.91,12.04 -5.56,24.13 -7.52,36.34 -1.31,-1.39 -2.56,-2.91 -3.85,-4.34 -14.14,33.98 -35.26,67.04 -63.15,75.88 -3.89,2.45 -7.91,4.51 -12.39,6.03 -40.12,15.28 -84.53,19.23 -126.63,10.68 -60.97,-8.99 -115.96,-37.22 -172.76,-59.74 -2.86,-1.07 -14.45,-5.38 -30.07,-11.15 -1.78,-0.61 -3.55,-1.26 -5.34,-1.84 -0.5,-0.26 -1.09,-0.48 -1.61,-0.73 -21.14,-7.79 -47.56,-17.47 -69.63,-25.35 -10.47,-3.05 -20.25,-6.45 -29.26,-10.21 -0.11,-0.03 -0.23,-0.07 -0.34,-0.11 l 0.03,-0.01 c -44.26,-18.51 -70.75,-45.23 -78.38,-78.44 -10.06,-43.74 -33.05,-109.12 1.44,-110.64 34.49,-1.52 116.53,44.42 132.72,51.18 5.4,2.25 10.11,9.66 15.51,19.79 0.33,0.31 0.7,0.57 1.03,0.89 -0.24,-0.1 -0.48,-0.21 -0.72,-0.31 10.71,20.2 24.28,50.98 51.77,74.79 6.9,5.96 14.48,10.95 22.43,15.34 -17.29,-15.33 -24.32,-32.43 -43.58,-71.96 -1.35,-2.68 -2.67,-5.37 -3.94,-8.05 l 1.64,1.96 c 3.82,3.53 12.54,7.58 15.64,9.9 6.23,4.65 12.29,9.53 18.32,14.43 33.41,27.15 66.64,49.99 110.21,56.75 13.4,2.08 26.98,2.85 40.52,2.85 7.01,0 14.01,-0.22 21,-0.57 5.24,-0.26 13.89,0.79 18.7,-1.24 -25.2,21.52 -59.73,29.54 -91.76,28.54 27.95,7.96 56.85,12.52 86.01,11.09 33.82,-1.66 64.65,-19.57 86.52,-44.86 25.42,-29.39 34.73,-66.16 36.87,-104.44 0.72,-12.76 0.45,-25.58 -0.79,-38.3 -1.13,-11.5 -5.78,-24.15 -5.62,-35.42 7.82,2.45 14.43,11.6 18.86,18.2 2.5,3.73 12.79,17.65 11.69,22.09 3.49,-14.05 2.2,-29.25 -3.62,-42.5 10,6.11 18.01,15.43 22.54,26.23 3.47,-9.68 4.81,-20.12 3.88,-30.36 5.02,16.6 11.01,32.9 17.91,48.81 3.31,7.62 6.33,16.66 11.04,23.53 1.74,2.54 4.06,4.64 6.07,7.02 1.54,1.83 7.63,6.72 7.95,8.88 -6.01,-41 -10.84,-83.35 -30.63,-120.47 15.35,8.39 24.85,24.14 28.25,40.92 13.07,51.85 27.31,105.98 22.17,159.17 -1.33,57.32 -17.84,120.95 -49.53,148.87 -0.06,0.06 -0.13,0.11 -0.18,0.16 -0.55,0.48 -1.07,1.04 -1.63,1.49 -1.34,1.11 -2.56,1.99 -3.8,2.92 -0.6,0.43 -1.15,0.95 -1.77,1.36 -8.17,5.8 -14.06,7.74 -18.38,7.67 -8.44,2.1 -17.39,2.86 -26.02,2.56 2.08,-7.7 8.11,-11.37 14.67,-14.51 13.5,-8.07 26.95,-22.81 38.57,-40.93 l -4.33,-1.39 c 1.49,-0.3 3.66,-0.71 5.89,-1.14 18.93,-30.5 32.58,-69.85 32.58,-103.4 0,-22.45 -2.12,-39.72 -4.62,-52.37 -0.18,7.46 -0.62,20.78 -0.84,27.66 0.47,7.88 -2.82,27.68 -9.74,50.8"
         style="fill:#f1f2e3;fill-opacity:1;fill-rule:nonzero;stroke:none"
         id="path28" />
      <path
         d="m 2225.36,3250.04 c 37.99,20.11 5.93,95.06 -36.34,74.8 -40.99,-21.45 -3.24,-88.49 36.34,-74.8"
         style="fill:#f1f2e3;fill-opacity:1;fill-rule:nonzero;stroke:none"
         id="path30" />
      <path
         d="m 2810.03,2768.33 c -67.74,30.32 -147.69,48.92 -219.64,22.96 116.19,-9.89 241.81,-36.57 326.34,-123.08 -13.69,50.9 -62.61,78.76 -106.7,100.12"
         style="fill:#f1f2e3;fill-opacity:1;fill-rule:nonzero;stroke:none"
         id="path32" />
      <path
         d="m 2915.46,3050.27 c 13.22,-47.1 64.98,-76.14 111.6,-79.94 39.1,4.59 81.45,20.5 101.15,56.98 21.61,40.05 39.18,85.09 29.37,131.23 0.95,-34.9 -8.95,-68.38 -21.45,-100.6 -26.2,-63.71 -112.31,-87.06 -170.96,-55.8 -21.29,10.53 -33.8,31.51 -49.71,48.13"
         style="fill:#f1f2e3;fill-opacity:1;fill-rule:nonzero;stroke:none"
         id="path34" />
      <path
         d="m 2087.48,3268.16 c 4.9,-46.46 22.79,-95.61 62.92,-122.83 40.78,-27.67 97.96,-48.3 145.44,-24.97 31.35,15.4 52.2,46.42 69.14,75.78 23.18,40.21 15.43,90.78 -7.92,129.09 18.44,-69.81 -8.39,-155.29 -77.57,-186 -46.24,-25.25 -95.83,-2.64 -132.65,26.83 -31.74,25.41 -49.39,63.64 -59.36,102.1"
         style="fill:#f1f2e3;fill-opacity:1;fill-rule:nonzero;stroke:none"
         id="path36" />
      <path
         d="m 2013.1,2785.13 c 73.65,63.39 167.56,97.54 242.89,159.55 -11.57,0.32 -23.42,0.35 -35.02,1.66 -51.55,16.89 -91.37,48.34 -121.18,81.4 2.23,-1.33 4.42,-2.71 6.69,-3.96 33.59,-18.53 72.51,-31.66 110.8,-37.09 19.53,-1.74 39.23,-1.89 58.81,-0.68 31.64,1.95 63.08,11.71 89.23,29.43 5.26,4.23 33.27,27.92 31.79,52.44 -1.54,25.38 -4.84,70.15 -31.82,77.93 -8.66,-10.33 -18.69,-19.5 -29.89,-27.01 -24.01,-16.08 -52.42,-24.01 -81.14,-25.24 -73.02,-3.12 -154.7,29.29 -196.9,90.65 -8.47,12.31 -15.6,25.83 -22.36,39.14 -0.91,1.78 -9.55,23.51 -11.08,23.52 -56.85,0.63 -118.36,-24.91 -151.61,-71.62 -69.78,-98.05 -73.28,-233.62 -58.22,-348.65 4.16,-31.74 7.9,-68.37 19.74,-98.31 9.55,-24.13 27.42,-47.86 43.24,-68.6 2.45,-3.22 30.52,-31.74 29.66,-34.82 7.52,26.97 16.32,49.89 29.16,71.69 7.78,13.22 17.05,26.02 28.42,39.06 15.23,17.49 31.21,34.38 48.79,49.51"
         style="fill:#f1f2e3;fill-opacity:1;fill-rule:nonzero;stroke:none"
         id="path38" />
      <path
         d="m 2341.31,2476.04 c -17.17,-18.36 -48.6,0.79 -48.2,23.27 0.22,12.54 17.2,26.81 28.7,27.59 16.3,1.11 31.85,-11.69 31.73,-28.54 -0.07,-9.12 -4.84,-17.2 -12.23,-22.32 z m -26.52,-109.47 c -15.38,-18.19 -55.44,-17.85 -62.83,8.57 -1.78,6.38 -1.35,13.15 -0.91,19.76 1.36,19.99 30.92,22.02 44.67,17.42 17.25,-5.78 39.73,-30.63 19.07,-45.75 z m -91.64,197.49 c -5.02,10.83 -3.73,18.06 4.23,26.91 5.8,6.45 14.85,12.82 24.02,11.23 14.16,-2.45 28.65,-13.93 31.02,-28.41 2.24,-13.64 -16.49,-23.01 -27.5,-24.95 -13.1,-2.31 -26,2.77 -31.77,15.22 z m -2.23,-102.19 c -13.01,-15.41 -44.97,-9.03 -48.26,12.1 -1.86,11.97 8.45,21.47 17.16,27.95 23.82,17.73 53.58,-22.09 31.1,-40.05 z m 412.93,908.55 c -1.98,-1.58 -6.02,-4.82 -8,-6.48 4.67,37.12 4.2,75.82 18.12,111.05 -1.33,-34.91 -2.52,-70.37 -10.12,-104.57 z M 2524.52,2245.37 c 19.12,6.1 38.07,12.76 56.87,19.82 17.79,6.68 36.38,14.39 47.77,29.61 8.32,11.14 11.61,24.91 12.91,38.52 0.27,2.91 4.05,40.59 4.44,40.38 -140.99,74.74 -165.48,128.24 -187.88,222.79 -8.32,35.15 -10.8,67.09 -8.31,95.27 l 0.53,1.86 c -0.12,-0.02 -0.24,-0.05 -0.36,-0.07 2.63,27.26 9.96,50.9 21.2,70.42 8.75,13.48 19.13,25.82 31.01,36.45 0.33,0.29 0.64,0.58 0.96,0.86 18.3,16.13 40.01,28.26 64.42,34.49 91.8,22.4 188.84,1.66 274.01,-35.3 1.02,-0.54 2.05,-1.1 3.08,-1.64 28.3,0.48 24.07,25.12 10.3,69.24 -12.81,41.01 -35.99,171.59 -39.7,284.01 -3.37,36.19 -0.99,72.35 4.76,108.09 0.1,0.62 0.18,1.29 0.28,1.9 0.16,0.89 0.29,1.65 0.44,2.51 0.35,2.09 0.71,4.19 1.08,6.27 1.64,9.19 3.1,16.57 4.42,22.41 0.07,0.31 0.13,0.62 0.2,0.93 0.09,0.38 0.18,0.81 0.27,1.18 4.49,20.56 9.85,40.94 15.66,61.05 14.15,49.01 24.16,99.62 27.59,150.57 3.37,50.09 2.11,102.75 -11.24,151.37 1.42,-5.2 7.9,-11.32 10.35,-16.53 2.78,-5.9 4.38,-11.96 6.04,-18.27 3.79,-14.57 6.96,-29.3 9.52,-44.15 5.02,-29.15 7.7,-58.71 8.2,-88.28 0.31,-18.37 -0.06,-36.78 -1.99,-55.07 -0.58,-5.45 -5.55,-51.89 -10.72,-52.33 1.82,0.15 5.62,0.39 7.45,0.55 16.06,27.39 36.17,55.88 67.27,66.96 97.67,30.29 177.84,-58.88 259.45,-94.66 6.15,-2.69 13.37,-5.12 19.44,-2.86 -1.3,6.98 -3.14,14.38 -5.73,21.82 -1.31,3.72 -2.72,7.13 -4.18,10.38 -54.14,56.42 -91.56,78.56 -91.56,78.56 0,0 40.29,-12.81 73.27,-33.92 -3.21,13.62 -5.09,31.37 -4.34,57.33 2.09,71.96 -62.61,137.94 -218.11,185.11 -32.39,9.9 -64.28,22.22 -95.36,35.32 -105.51,40.04 -215.36,73.13 -328.63,79.15 -31.97,2.13 -64.35,8.31 -96.24,2.61 26.36,-11.79 52.87,-24.22 75.19,-42.9 52.32,-45.59 82.48,-111.52 101.24,-177.14 -1.51,-10.13 -3.01,-20.34 -4.59,-30.55 -17.03,55.72 -33.25,115.56 -75.83,157.9 -19.95,18.13 -40.13,37.13 -64.67,48.84 14.17,-18.29 33.87,-31.26 47.89,-49.71 26.59,-39.89 48.76,-84.13 54.76,-132.34 -9.57,23.04 -16.85,47.18 -30.78,68.08 -17.33,29.83 -43.61,53.02 -61.26,82.63 -9.5,16.78 -26.52,26.75 -43.3,34.98 -59.83,28.18 -122.92,50.02 -187.9,62.68 -49.68,11.54 -76.36,61.22 -98.7,61.66 -22.34,0.44 -51.13,-116.66 -51.13,-116.66 0,0 13.18,-8.05 18.41,-22.33 -0.78,0.4 -1.51,0.83 -2.34,1.2 1.22,-3.26 2.69,-6.38 4.29,-9.42 0.89,-8.67 -1.48,-18.98 -10.25,-30.72 -12.82,-17.15 -46.53,-66.49 -79.66,-115.47 -2.9,1.94 -7.25,1 -13.16,-3.01 0.62,-5.01 2.31,-8 5.03,-9.02 -37.3,-55.22 -71.6,-106.54 -71.6,-106.54 46.94,8.71 91.42,28.18 133.06,50.89 0,0 19.29,10.98 74.64,37.05 47.09,6.96 91.81,26.19 139.61,29.28 31.27,2.61 63.09,11.56 94.35,3.41 41.24,-9.98 81.52,-32.06 106.06,-67.6 19.16,-33.48 23.03,-72.9 27.54,-110.49 4.08,-37.61 -2.24,-75.19 -9.8,-111.94 -3.01,-14.63 -8.69,-25.99 -13.22,-39.77 -5.86,-17.82 -10.74,-35.66 -18.81,-52.68 -9.91,-20.91 -23.57,-39.81 -41.94,-54.1 26.43,2.75 53.93,6.14 76.15,20.71 29.36,19.25 43.74,53.9 59.31,85.36 25.37,51.27 48.56,97.03 50.99,155.4 1.9,45.93 3.03,91.89 3.36,137.86 11.05,-12.2 12.22,-30.17 12.46,-46.63 0.82,-56.07 -2.37,-112.45 -14.51,-167.19 -13.63,-61.53 -38.91,-121.61 -80,-169.93 -12.36,-13.56 -25.89,-25.83 -39.42,-38.17 -11.58,-10.57 -24.92,-15.47 -39.36,-21.06 -15.72,-6.09 -30.85,-13.7 -45.11,-22.7 13.87,-2.23 26.93,-9.2 36.52,-19.47 -18.4,-1.21 -37.35,-2.56 -53.9,-10.72 -6.71,-3.3 -12.85,-7.66 -18.6,-12.44 -7.28,-6.04 -13.97,-12.78 -19.97,-20.1 11.88,4.11 22.9,7.47 34.05,13.18 11.39,5.83 22.75,11.9 35.06,15.6 -3.59,-1.08 -8.69,-7.9 -11.61,-10.44 -3.93,-3.41 -7.92,-6.75 -11.95,-10.03 -8.41,-6.83 -17.04,-13.39 -25.79,-19.77 -17.56,-12.79 -35.66,-24.82 -53.77,-36.79 -37.1,-24.54 -74.74,-48.39 -110.66,-74.64 -31.27,-22.85 -62.58,-46.11 -97.6,-62.98 -49.15,-24.93 -95.85,-55.88 -135.1,-94.9 -23.66,-23.51 -45,-53.6 -56.66,-84.93 -5.93,-15.94 -9.22,-32.87 -8.68,-49.91 0.18,-5.45 -0.66,-14.14 3.78,-18.14 6.96,-6.27 14.57,0.52 18.69,6.21 13.54,18.71 24.3,39.04 38.12,57.41 45.82,60.94 108.75,115.8 185.05,132.02 -10.72,-7.72 -21.82,-15.14 -32.95,-22.57 -11.27,-7.52 -24.73,-12.13 -36.13,-20 -13.94,-9.62 -27.03,-20.43 -39.59,-31.77 -10.45,-9.44 -19.99,-19.62 -29.17,-30.11 -47.9,-71.8 -43.06,-117.78 -43.06,-117.78 0,0 -8.46,9.67 -7.06,37.42 0.32,6.34 1.03,12.53 1.92,18.34 -5.05,-7.42 -9.78,-15.04 -13.58,-23.16 -6.25,-13.35 -10.05,-28.15 -8.72,-42.83 0.58,-6.4 1.95,-15.6 6.11,-20.8 3.47,-4.35 10.54,-7.5 15.31,-10.47 1.74,-1.09 20.56,-10.17 20.54,-11.79 0.92,96.08 32.91,133.44 51.69,170.01 l 1.27,0.4 c -1.45,-5.29 -2.75,-10.63 -4,-15.97 -0.02,0.03 -30.64,-93.89 -15.31,-178.33 15.33,-84.45 59.83,-195.35 144.88,-248.55 44,-27.53 102.33,-24.64 152.05,-20.32 55.48,4.81 110.02,17.64 162.98,34.55"
         style="fill:#f1f2e3;fill-opacity:1;fill-rule:nonzero;stroke:none"
         id="path40" />
      <path
         d="m 1857.25,3632.71 c 8.07,35.67 15.71,71.5 32.53,104.17 25.08,48.75 48.35,98.97 77.48,145.52 11.24,17.97 23.47,35.34 37.11,51.58 9.78,11.66 24.8,34.05 40.83,36.93 7.37,1.33 15.22,-2.2 19.72,-8.19 12.06,-16.08 2.25,-49.76 0.67,-68.01 -2.2,-25.41 -3.74,-50.98 -1.53,-76.44 0.6,-6.93 3.05,-15.54 9.94,-16.47 5.47,-0.74 9.97,4.08 13.07,8.65 21.16,31.24 21.45,65.95 17.34,102.07 -4.66,41.08 -9.41,89.12 -45.27,115.72 -53.98,15.04 -104.32,-24.14 -138.83,-61.58 -62.96,-68.36 -83.37,-162.42 -114.47,-247.14 -3.81,-10.39 -7.74,-20.8 -13.27,-30.39 -0.86,-1.49 -1.83,-3.03 -3.37,-3.8 -2.87,-1.43 -6.49,0.61 -7.95,3.47 -1.45,2.86 -1.33,6.23 -1.24,9.44 1.39,44.32 -6.78,89.71 -29.11,128.02 -22.33,38.32 -59.85,68.82 -103.4,77.18 -1.43,0.27 -2.88,0.52 -4.32,0.75 -52.78,8.32 -112.29,-20.3 -161.44,-36.94 -59.09,-20 -117.91,-40.88 -177.53,-59.29 -108.96,-33.62 -91.5,-104.38 -66.88,-198.9 20.51,-78.71 96.65,-177.33 152.26,-250.38 44.96,-59.08 76.59,-129.9 116.25,-192.72 15.5,-24.55 31.4,-48.86 47.67,-72.92 11.08,-16.39 35.87,-43.51 54.5,-50.41 12.77,-4.72 27.57,-2.09 39.12,5.14 16.86,10.54 25.49,29.3 34.26,46.38 16.78,32.69 31.82,66.26 48.23,99.14 3.22,6.44 6.35,12.92 9.39,19.43 30.74,65.66 53.29,134.86 71.96,204.82 19.01,71.26 30.05,143.36 46.28,215.17"
         style="fill:#f1f2e3;fill-opacity:1;fill-rule:nonzero;stroke:none"
         id="path42" />
      <path
         d="m 3347.01,3490.95 c 25.96,-60.66 54.52,-134.93 54.52,-134.93 -7.79,102.12 -47.59,188.67 -72.69,224.15 0,0 -7.8,-28.56 18.17,-89.22"
         style="fill:#f1f2e3;fill-opacity:1;fill-rule:nonzero;stroke:none"
         id="path44" />
      <path
         d="m 3059.04,3257.04 c -4.2,-0.02 -8.99,-0.28 -14.11,-0.68 -24.21,-1.94 -57.2,-8.18 -85.67,-18.01 -21.27,-7.34 -40,-16.66 -50.5,-27.67 0,0 12.51,27.2 50.5,43.34 2.49,1.05 5.07,2.06 7.77,3.02 2.66,0.93 5.33,1.73 8,2.45 41.69,11.2 84.01,-2.45 84.01,-2.45 z m 144.09,44.18 c -21.77,19.2 -41.63,41.1 -66.96,56.02 -7.95,4.69 -16.34,8.56 -24.73,12.38 -17.64,8.03 -35.6,15.93 -54.72,19.03 -14.4,2.34 -29.1,1.9 -43.64,0.8 -17.42,-1.31 -35.06,-3.66 -51.45,-9.96 -13.26,-5.1 -22.63,-13.23 -33.52,-21.87 -49.74,-39.43 -63.94,-63.66 -72.64,-126.89 -2.27,-16.42 -2.45,-34.98 -1.6,-53.46 3.01,5.73 7.07,12.52 12.77,20.39 17.43,24.01 44.68,33.62 44.68,33.62 -28.67,-25.45 -46.03,-65.73 -54.63,-90.6 0.84,-7.38 1.77,-14.47 2.71,-21.12 18.31,23.33 43.22,38.98 43.22,38.98 -19.22,-24.96 -31.38,-48.54 -38.83,-66.17 2.2,-12.26 3.87,-19.86 3.87,-19.86 0,0 76.18,169.94 204.82,175.47 41.59,-1.02 79.95,-32.05 109.91,-72.4 4.95,-7.35 9.84,-14.75 14.84,-22.04 0.86,-1.26 1.64,-2.5 2.45,-3.75 4.62,-7.58 8.97,-15.29 12.99,-23.06 11.19,-23.88 12.51,-42.28 6.1,-49.75 -8.63,-10.08 -35.74,0.57 -71.52,-64.47 -34.42,-62.57 -122.4,-80.69 -193.41,-63.94 -2.31,1.09 -5.02,1.84 -8.38,2.05 0.59,-2.11 1.2,-4.22 1.8,-6.34 3.52,-12.44 7.18,-24.86 11.08,-37.2 9.71,13.04 28.53,18.66 28.53,18.66 0,0 -17.42,-23.31 -18.9,-46.09 5.04,-12.09 10.87,-23.72 16.51,-35.67 15.56,-32.99 28.99,-66.93 42.46,-100.82 2.43,-7.12 5.04,-14.18 7.97,-21.08 0.1,-0.3 0.22,-0.61 0.32,-0.9 4.39,-12.49 9.99,-33.96 15.72,-58.03 -0.11,-0.58 -0.2,-1.16 -0.31,-1.74 0.23,0.08 0.44,0.16 0.66,0.24 13.65,-57.62 27.88,-129.35 27.88,-129.35 0,0 55.32,72.92 83.28,135.91 27.96,62.99 52.34,143.44 52.94,183.58 0.17,11.16 -1.71,26.3 -12.06,32.85 -5.36,3.41 -11.02,3.29 -17.06,2.55 -34.01,-4.17 -66.47,-17.53 -100.57,-20.89 5.24,0.51 12.48,5.81 17.22,8.15 5.76,2.85 11.48,5.82 17.13,8.91 11.37,6.22 22.47,12.96 33.1,20.37 1.64,1.15 3.24,2.33 4.85,3.5 0.11,0.06 0.18,0.09 0.29,0.16 28.48,18.51 72.66,46.84 79.56,78.19 6.91,31.35 19.33,89.57 0,133.09 0,0 0,-0.15 0,-0.21 -13.7,36.59 -67.86,97.16 -92.54,114.24 -15.08,10.44 -30.92,17.45 -46.33,21.36 -0.02,0.03 -0.03,0.06 -0.05,0.09 -37.99,9.77 -54.42,17.82 -53.25,17.43 1.18,-0.39 34.67,7.12 60.76,-5.27 20.87,-9.21 39.88,-18.28 57.39,-33.33 17.03,-14.63 31.52,-31.94 45.31,-49.58 1.58,-2.03 3.3,-4.06 5.05,-6.11 0.14,-0.17 0.26,-0.3 0.4,-0.47 14.06,-17.4 41.55,-34.6 42.99,2.5 0.33,20.16 -2.63,40.49 -8.42,59.24 -8.6,27.87 -24.99,44.08 -46.04,62.66"
         style="fill:#f1f2e3;fill-opacity:1;fill-rule:nonzero;stroke:none"
         id="path46" />
      <path
         d="m 3113.7,3134.66 c 4.02,2.9 6.51,7.57 7.73,12.38 1.44,5.66 2.15,12.62 0.92,18.39 -1.16,5.46 -24.82,6.57 -29.23,6.85 -5.47,0.35 -23.25,2.05 -23.91,-6.7 -0.01,-0.12 -0.02,-0.24 -0.02,-0.36 -0.75,-16.34 29.26,-41.57 44.51,-30.56"
         style="fill:#f1f2e3;fill-opacity:1;fill-rule:nonzero;stroke:none"
         id="path48" />
      <path
         d="m 3428.71,3444.66 c -12.3,55.46 -33.14,109.11 -62.41,157.84 -16.92,28.17 -49.01,73.55 -86.71,70.85 -19.01,-1.36 -30.85,-14.03 -39.22,-29.98 -10.33,-19.69 -16.46,-41.58 -17.85,-63.78 10.34,22.06 35.65,36.06 59.83,33.12 -7.55,8.25 -18.57,12.32 -29.64,11.81 7.61,1.22 13.57,6.98 21.12,8.38 14.96,2.75 27.23,0.38 39.11,-9.68 26,-21.99 42.04,-52.84 55.77,-83.38 15.81,-35.19 29.09,-71.1 38.21,-108.64 9.46,-38.94 12.81,-79.18 17.62,-118.89 6.92,-56.89 11.32,-114.06 9.84,-171.46 -0.25,-9.66 -1.35,-19.28 -2.45,-28.87 5.83,23.45 9.37,47.38 10.91,71.49 1.5,23.47 4.12,46.91 4.61,70.57 0.87,44.64 -1.82,89.35 -8.26,133.53 -2.79,19.15 -6.29,38.2 -10.48,57.09"
         style="fill:#f1f2e3;fill-opacity:1;fill-rule:nonzero;stroke:none"
         id="path50" />
      <path
         d="m 3713.2,3248.98 c -11.25,-9.72 -21.78,-22.32 -36.52,-24.26 -2.4,-0.32 -4.91,-0.31 -7.15,0.6 -2.95,1.18 -5.07,3.76 -7.06,6.23 -9.35,11.64 -18.71,23.27 -28.08,34.91 -8.47,10.55 -18.07,21.8 -31.35,24.39 -9.32,1.82 -18.86,-1 -27.83,-4.07 -29.5,-10.08 -71.22,-26.36 -86.74,-55.63 -12.8,-24.11 -17.78,-55.91 -23.03,-82.23 -12.02,-60.24 -16.06,-122.04 -14.21,-183.38 5.16,-170.1 59.99,-205.39 81.71,-188.2 21.71,17.19 98.61,129.39 133,207.15 34.38,77.77 94.1,126.72 118.65,191.39 15.34,40.38 -27.11,111.38 -71.39,73.1"
         style="fill:#f1f2e3;fill-opacity:1;fill-rule:nonzero;stroke:none"
         id="path52" />
      <path
         d="m 2981.99,3101.77 c 6.17,1.21 15.4,6.86 18.22,12.73 1.76,3.69 2.09,7.55 0.3,11.31 -6.22,13 -21.24,8.74 -27.12,-2.41 -2.96,-5.62 -3.61,-14.43 -0.08,-18.97 1.77,-2.26 4.59,-3.46 8.68,-2.66"
         style="fill:#f1f2e3;fill-opacity:1;fill-rule:nonzero;stroke:none"
         id="path54" />
      <path
         d="m 1910.8,2555 c -50.19,-73.29 -65.25,-163.64 -83.32,-214.84 -18.08,-51.2 -117.46,-226.89 -103.41,-415.63 14.06,-188.73 126.5,-364.42 186.73,-424.66 60.24,-60.23 127.5,-73.28 207.81,-137.53 80.32,-64.25 189.74,-168.66 202.8,-236.93 13.05,-68.26 35.13,0 35.13,0 0,0 20.08,-82.31 0,-149.578 0,0 94.37,141.838 238.94,253.128 144.56,111.29 332.29,292 332.29,292 0,0 87.35,-4.02 143.56,123.48 56.22,127.49 56.22,329.28 44.18,398.56 -12.05,69.27 -89.36,191.73 -89.36,191.73 0,0 -61.24,-113.43 -149.58,-135.51 -88.35,-22.09 -154.04,-46.18 -198.99,-55.22 -44.96,-9.04 -198.74,-18.07 -280.47,33.13 -81.73,51.2 -124.9,111.43 -156.02,118.47 -31.12,7.02 -133.52,76.28 -159.62,150.58 -26.1,74.29 -1.68,113.07 -39.49,127.81 -37.81,14.75 -131.18,81.01 -131.18,81.01"
         style="fill:#f1f2e3;fill-opacity:1;fill-rule:nonzero;stroke:none"
         id="path56" />
      <path
         d="m 1917.06,2582.19 c 8.73,84.36 79.65,216.49 225.46,277.83 145.81,61.33 236.44,150.6 236.44,150.6 0,0 25.55,57.97 48.21,77.99 22.65,20.02 98.44,31.15 132.78,65.34 34.34,34.18 73.41,104.41 87.78,174.33 14.38,69.91 17.38,154.98 14.98,187.32 h -2.69 c 0,0 -14.37,22.57 -28.15,62.22 -13.79,39.65 -46.55,141.35 -141.93,184.45 -95.38,43.09 -175.25,60.33 -206.86,70.1 -31.6,9.77 -106.3,55.16 -122.39,81.02 -16.09,25.85 -58.32,134.34 -106,135.34 -47.69,0.99 -543.47,-140.09 -611.03,-162.94 -67.56,-22.86 -216.59,-73.52 -246.39,-125.19 -29.81,-51.66 21.85,-190.76 41.72,-236.46 19.87,-45.7 200.16,-302.57 216.81,-385.82 16.65,-83.26 58.28,-188.16 159.85,-144.87 101.57,43.29 131.54,131.55 148.2,99.91 16.65,-31.64 -28.27,-211.82 23.42,-325.22 51.68,-113.4 129.79,-185.95 129.79,-185.95"
         style="fill:#f57a1a;fill-opacity:1;fill-rule:nonzero;stroke:none"
         id="path58" />
      <path
         d="m 2087.48,3280.5 c 28.84,-38.42 89,-129.74 112.92,-134.09 23.92,-4.34 99.29,7.97 124.66,43.49 25.37,35.52 13.77,135.42 32.62,138.38 18.84,2.96 21.02,-36.91 27.54,-63.72 6.52,-26.83 -15.95,-88.43 -34.07,-109.45 -18.12,-21.02 -44.93,-64.5 -94.94,-57.98 -50.01,6.52 -136.26,34.06 -164.53,68.85 -28.27,34.79 -4.2,114.52 -4.2,114.52"
         style="fill:#f9e373;fill-opacity:1;fill-rule:nonzero;stroke:none"
         id="path60" />
      <path
         d="m 2156.75,3288.25 c 0,27.63 22.41,50.03 50.04,50.03 27.64,0 50.04,-22.4 50.04,-50.03 0,-27.64 -22.4,-50.04 -50.04,-50.04 -27.63,0 -50.04,22.4 -50.04,50.04"
         style="fill:#f1f2e3;fill-opacity:1;fill-rule:nonzero;stroke:none"
         id="path62" />
      <path
         d="m 2866.37,3637.07 c -1.74,14.42 38.74,-3.28 46.88,0 8.15,3.28 -14.93,24.99 16.28,23.63 31.22,-1.35 137.76,-54.28 217.83,-41.39 80.08,12.89 91.93,83.79 162.37,66.96 70.45,-16.83 197.7,-255.09 286.43,-304.55 88.73,-49.45 155.65,-92.48 209.46,-144.43 53.82,-51.94 -40.73,-189.39 -77.09,-233.4 -36.36,-44.01 -144.01,-230.7 -177.47,-271.18 -33.45,-40.48 -110.54,70.9 -110.54,70.9 0,0 -35.79,275.48 -38.99,314.07 -3.2,38.57 -32.27,111.69 -66.46,94.77 -34.2,-16.92 -75.63,-127.47 -77.46,-229.29 -1.83,-101.83 -67.29,-314.85 -106.57,-380.71 -39.26,-65.86 -81.87,-96.08 -81.87,-96.08 0,0 -51.24,176.6 -82.87,267.05 -31.62,90.46 -122.07,230.76 -143.53,323.04 -21.45,92.29 26.51,230.65 31.56,323 5.04,92.35 5.48,151.93 4.51,168.89 -0.97,16.98 -12.47,48.72 -12.47,48.72"
         style="fill:#f57a1a;fill-opacity:1;fill-rule:nonzero;stroke:none"
         id="path64" />
      <path
         d="m 2968.17,3138.6 c -9.24,-24.53 -25.64,-61.12 15.73,-51.87 41.37,9.25 9.21,29.35 61.08,36.99 51.87,7.64 87.26,-7.13 90.87,10.11 3.62,17.23 17.29,50.61 -7.24,55.03 -24.52,4.43 -83.37,-1.2 -89.94,-6.03 -6.56,-4.82 -70.5,-44.23 -70.5,-44.23"
         style="fill:#f1f2e3;fill-opacity:1;fill-rule:nonzero;stroke:none"
         id="path66" />
      <path
         d="m 2912.65,3059.46 c 10.62,-9.18 70.54,-59.43 104.36,-59.43 33.83,0 70.55,12.57 93.74,36.24 23.2,23.68 36.24,57.95 37.21,81.41 0.97,23.44 0.97,50.98 8.69,50.02 7.73,-0.97 16.91,-30.27 15.95,-55.72 -0.97,-25.46 -35.45,-97.45 -49.62,-111.95 -14.16,-14.49 -52.08,-37.8 -85.07,-38.71 -32.98,-0.91 -77.43,-6.22 -96.27,18.42 -18.85,24.64 -38.17,54.6 -38.66,63.78 -0.48,9.18 9.67,15.94 9.67,15.94"
         style="fill:#f9e373;fill-opacity:1;fill-rule:nonzero;stroke:none"
         id="path68" />
      <path
         d="m 1875.65,2473.99 c 86.25,-15.69 141.78,-144.48 187.86,-210.64 46.08,-66.17 152.25,-413.5 463.01,-420.34 310.76,-6.86 295.74,241.72 295.74,241.72 0,0 -282.32,-69.02 -369.36,-38.09 -87.04,30.92 -170.29,129.4 -170.29,129.4 0,0 -96.55,17.19 -145.79,75.59 -49.25,58.41 -85.07,217.05 -85.07,217.05 l -145.86,78.84 -30.24,-73.53"
         style="fill:#c3bfb6;fill-opacity:1;fill-rule:nonzero;stroke:none"
         id="path70" />
      <path
         d="m 2396.84,2175.06 c 79.31,-28.33 243.65,-60.03 321.86,-29.44 l -74.8,105.38 -247.06,-75.94"
         style="fill:#c3bfb6;fill-opacity:1;fill-rule:nonzero;stroke:none"
         id="path72" />
      <path
         d="m 2055.17,2454.52 c 66.65,-109.09 136.71,-203.69 266.64,-203.52 129.93,0.16 242.26,19.66 256.79,66.8 14.53,47.13 -173.29,159.27 -199.64,299.04 0,0 23.17,123.26 178.8,186.77 0,0 -73.15,-265.15 -24.98,-303.61 48.17,-38.46 161.5,-73.5 144.79,-110.71 -16.7,-37.23 -33.67,-138.29 -33.67,-138.29 0,0 -216.28,-82.5 -294.89,-77.39 -78.61,5.12 -160.5,37.63 -195.83,77.39 -35.32,39.75 -85.54,100.1 -86.78,133.17 -1.23,33.07 -11.23,70.35 -11.23,70.35"
         style="fill:#c3bfb6;fill-opacity:1;fill-rule:nonzero;stroke:none"
         id="path74" />
      <path
         d="m 2959.04,2612.04 c 42.41,-36.96 35.8,-101.54 35.8,-101.54 0,0 -82.77,-96.48 -142.37,-137.39 -59.6,-40.93 -129.56,-51.27 -144.08,-71.84 -14.52,-20.58 54.64,-128.82 116.42,-144.67 61.79,-15.84 139.67,16.79 139.67,16.79 0,0 -37.15,-72.23 -106.35,-68.26 -69.21,3.95 -146.88,72.71 -180.55,109.29 -33.68,36.58 -14.95,121.12 -7.26,155.07 7.71,33.95 53,59.05 104.93,55.1 51.95,-3.97 38.74,-26.41 91.55,22.44 52.8,48.84 62.57,117.49 74.19,149.17 11.62,31.68 18.05,15.84 18.05,15.84"
         style="fill:#c3bfb6;fill-opacity:1;fill-rule:nonzero;stroke:none"
         id="path76" />
      <path
         d="m 1628.98,2988.54 c 36.89,54.46 -117.36,267.35 -187.64,375.4 -70.27,108.04 -150.99,260.45 -144.06,352.24 6.93,91.78 15.81,115.95 15.81,115.95 0,0 -112.72,26.35 -124.88,-70.27 -12.15,-96.63 28.25,-232.92 66.91,-286.87 38.65,-53.96 182.18,-265.38 205.29,-357.31 23.1,-91.94 168.57,-129.14 168.57,-129.14"
         style="fill:#cb651d;fill-opacity:1;fill-rule:nonzero;stroke:none"
         id="path78" />
      <path
         d="m 2055.17,3190.46 c 39.69,-76.2 77.13,-122.81 151.62,-137.93 74.49,-15.11 142.22,12.51 142.22,12.51 0,0 -78.24,-115.11 -249.22,-37.3 0,0 114.45,-62.43 132.36,-66.35 -3.82,0.84 -14.07,-5.18 -17.55,-6.45 -20.19,-7.32 -40.43,-14.49 -60.69,-21.61 -77.9,-27.35 -155.93,-51.47 -227.08,-94.46 -12.84,-7.76 -25.24,-15.6 -38.52,-22.54 -8.09,-4.25 -16.03,-12.33 -20.22,-0.42 -2.27,6.47 -1.8,14.27 -1.4,21.01 0.67,11.26 3.68,22.29 7.56,32.83 1.95,5.29 4.15,10.48 6.51,15.6 1.45,3.17 3.73,11.34 6.54,13.36 -0.01,0 -30.56,-21.94 -37.61,-37.61 0,0 -48.75,95.83 -28.99,240.42 19.77,144.59 -59.14,-14.39 -55.92,-97.63 3.21,-83.24 17.64,-210.26 42.05,-267.98 24.41,-57.71 70.53,-118.33 90.29,-140.72 19.77,-22.41 28.99,60.61 73.8,117.27 44.8,56.66 168.74,150.57 262.3,192.49 93.55,41.92 138.52,98.94 138.52,98.94 0,0 47.09,45.03 46.52,75.64 -0.58,30.61 -26.19,77.03 -49.82,78.51 -23.64,1.47 -30.04,-23.15 -50.73,-34.48 -20.67,-11.32 -58.1,-26.09 -92.57,-21.17 -34.47,4.92 -98.98,37.42 -116.21,58.6 -17.24,21.17 -53.76,29.47 -53.76,29.47"
         style="fill:#cb651d;fill-opacity:1;fill-rule:nonzero;stroke:none"
         id="path80" />
      <path
         d="m 2990.76,2775.88 c 52.2,-62.99 125,-140.67 211.56,-65.85 0,0 -56.5,-144.24 -133.15,-210.03 l -78.41,275.88"
         style="fill:#cb651d;fill-opacity:1;fill-rule:nonzero;stroke:none"
         id="path82" />
      <path
         d="m 3195.96,3092.26 c 4.82,-50.16 -28.94,-116.72 -65.6,-145.65 -36.65,-28.94 -128.62,-13.51 -173.31,-92.61 0,0 -18.64,57.88 -19.61,88.74 -0.96,30.87 -26.38,58.81 19.61,37.61 45.99,-21.2 115.44,-26.43 151.13,0 35.69,26.43 53.74,74.29 64.49,90.69 10.75,16.4 23.29,21.22 23.29,21.22"
         style="fill:#cb651d;fill-opacity:1;fill-rule:nonzero;stroke:none"
         id="path84" />
      <path
         d="m 3765.69,3257.46 c 21.43,-71.61 -31.37,-123.74 -76.57,-192.42 -45.18,-68.68 -91.41,-180.05 -148.11,-220.56 -56.72,-40.52 -101.68,-20.09 -101.68,-20.09 0,0 67.78,-107.31 81.59,-120.18 13.81,-12.88 73.74,88.8 98.38,137.76 24.64,48.95 114.8,190.8 151.31,235.98 36.51,45.19 64.13,120.51 45.3,151.89 -18.84,31.39 -50.22,27.62 -50.22,27.62"
         style="fill:#cb651d;fill-opacity:1;fill-rule:nonzero;stroke:none"
         id="path86" />
      <path
         d="m 2791.46,1869.8 c -19.37,-17.98 -35.09,-40.14 -55.88,-57.32 -23.89,-19.74 -48.64,-38.39 -73.37,-57.04 -12.37,-9.32 -24.74,-18.64 -37,-28.1 -5.23,-4.02 -10.31,-7.84 -14.79,-12.61 -2.73,-2.9 -6.89,-10.28 -11.24,-10.87 30.71,4.19 58.73,18.67 83.66,36.64 45.51,32.8 86.77,76.62 108.62,129.3"
         style="fill:#341f1d;fill-opacity:1;fill-rule:nonzero;stroke:none"
         id="path88" />
      <path
         d="m 3784.59,3175.88 c -24.55,-64.67 -84.27,-113.62 -118.65,-191.39 -34.39,-77.76 -111.29,-189.96 -133,-207.15 -21.72,-17.19 -76.55,18.1 -81.71,188.2 -1.85,61.34 2.19,123.14 14.21,183.38 5.25,26.32 10.23,58.12 23.03,82.23 15.52,29.27 57.24,45.55 86.74,55.63 8.97,3.07 18.51,5.89 27.83,4.07 13.28,-2.59 22.88,-13.84 31.35,-24.39 9.37,-11.64 18.73,-23.27 28.08,-34.91 1.99,-2.47 4.11,-5.05 7.06,-6.23 2.24,-0.91 4.75,-0.92 7.15,-0.6 14.74,1.94 25.27,14.54 36.52,24.26 44.28,38.28 86.73,-32.72 71.39,-73.1 z m -341.75,7.59 c -1.54,-24.11 -5.08,-48.04 -10.91,-71.49 1.1,9.59 2.2,19.21 2.45,28.87 1.48,57.4 -2.92,114.57 -9.84,171.46 -4.81,39.71 -8.16,79.95 -17.62,118.89 -9.12,37.54 -22.4,73.45 -38.21,108.64 -13.73,30.54 -29.77,61.39 -55.77,83.38 -11.88,10.06 -24.15,12.43 -39.11,9.68 -7.55,-1.4 -13.51,-7.16 -21.12,-8.38 11.07,0.51 22.09,-3.56 29.64,-11.81 -24.18,2.94 -49.49,-11.06 -59.83,-33.12 1.39,22.2 7.52,44.09 17.85,63.78 8.37,15.95 20.21,28.62 39.22,29.98 37.7,2.7 69.79,-42.68 86.71,-70.85 29.27,-48.73 50.11,-102.38 62.41,-157.84 4.19,-18.89 7.69,-37.94 10.48,-57.09 6.44,-44.18 9.13,-88.89 8.26,-133.53 -0.49,-23.66 -3.11,-47.1 -4.61,-70.57 z m -95.83,307.48 c -25.97,60.66 -18.17,89.22 -18.17,89.22 25.1,-35.48 64.9,-122.03 72.69,-224.15 0,0 -28.56,74.27 -54.52,134.93 z M 3214.6,3176.82 c -0.14,0.17 -0.26,0.3 -0.4,0.47 -1.75,2.05 -3.47,4.08 -5.05,6.11 -13.79,17.64 -28.28,34.95 -45.31,49.58 -17.51,15.05 -36.52,24.12 -57.39,33.33 -26.09,12.39 -59.58,4.88 -60.76,5.27 -1.17,0.39 15.26,-7.66 53.25,-17.43 0.02,-0.03 0.03,-0.06 0.05,-0.09 15.41,-3.91 31.25,-10.92 46.33,-21.36 24.68,-17.08 78.84,-77.65 92.54,-114.24 0,0.06 0,0.21 0,0.21 19.33,-43.52 6.91,-101.74 0,-133.09 -6.9,-31.35 -51.08,-59.68 -79.56,-78.19 -0.11,-0.07 -0.18,-0.1 -0.29,-0.16 -1.61,-1.17 -3.21,-2.35 -4.85,-3.5 -10.63,-7.41 -21.73,-14.15 -33.1,-20.37 -5.65,-3.09 -11.37,-6.06 -17.13,-8.91 -4.74,-2.34 -11.98,-7.64 -17.22,-8.15 34.1,3.36 66.56,16.72 100.57,20.89 6.04,0.74 11.7,0.86 17.06,-2.55 10.35,-6.55 12.23,-21.69 12.06,-32.85 -0.6,-40.14 -24.98,-120.59 -52.94,-183.58 -27.96,-62.99 -83.28,-135.91 -83.28,-135.91 0,0 -14.23,71.73 -27.88,129.35 -0.22,-0.08 -0.43,-0.16 -0.66,-0.24 0.11,0.58 0.2,1.16 0.31,1.74 -5.73,24.07 -11.33,45.54 -15.72,58.03 -0.1,0.29 -0.22,0.6 -0.32,0.9 -2.93,6.9 -5.54,13.96 -7.97,21.08 -13.47,33.89 -26.9,67.83 -42.46,100.82 -5.64,11.95 -11.47,23.58 -16.51,35.67 1.48,22.78 18.9,46.09 18.9,46.09 0,0 -18.82,-5.62 -28.53,-18.66 -3.9,12.34 -7.56,24.76 -11.08,37.2 -0.6,2.12 -1.21,4.23 -1.8,6.34 3.36,-0.21 6.07,-0.96 8.38,-2.05 71.01,-16.75 158.99,1.37 193.41,63.94 35.78,65.04 62.89,54.39 71.52,64.47 6.41,7.47 5.09,25.87 -6.1,49.75 -4.02,7.77 -8.37,15.48 -12.99,23.06 -0.81,1.25 -1.59,2.49 -2.45,3.75 -5,7.29 -9.89,14.69 -14.84,22.04 -29.96,40.35 -68.32,71.38 -109.91,72.4 -128.64,-5.53 -204.82,-175.47 -204.82,-175.47 0,0 -1.67,7.6 -3.87,19.86 7.45,17.63 19.61,41.21 38.83,66.17 0,0 -24.91,-15.65 -43.22,-38.98 -0.94,6.65 -1.87,13.74 -2.71,21.12 8.6,24.87 25.96,65.15 54.63,90.6 0,0 -27.25,-9.61 -44.68,-33.62 -5.7,-7.87 -9.76,-14.66 -12.77,-20.39 -0.85,18.48 -0.67,37.04 1.6,53.46 8.7,63.23 22.9,87.46 72.64,126.89 10.89,8.64 20.26,16.77 33.52,21.87 16.39,6.3 34.03,8.65 51.45,9.96 14.54,1.1 29.24,1.54 43.64,-0.8 19.12,-3.1 37.08,-11 54.72,-19.03 8.39,-3.82 16.78,-7.69 24.73,-12.38 25.33,-14.92 45.19,-36.82 66.96,-56.02 21.05,-18.58 37.44,-34.79 46.04,-62.66 5.79,-18.75 8.75,-39.08 8.42,-59.24 -1.44,-37.1 -28.93,-19.9 -42.99,-2.5 z m -145.41,-11.6 c 0,0.12 0.01,0.24 0.02,0.36 0.66,8.75 18.44,7.05 23.91,6.7 4.41,-0.28 28.07,-1.39 29.23,-6.85 1.23,-5.77 0.52,-12.73 -0.92,-18.39 -1.22,-4.81 -3.71,-9.48 -7.73,-12.38 -15.25,-11.01 -45.26,14.22 -44.51,30.56 z m -95.8,-41.82 c 5.88,11.15 20.9,15.41 27.12,2.41 1.79,-3.76 1.46,-7.62 -0.3,-11.31 -2.82,-5.87 -12.05,-11.52 -18.22,-12.73 -4.09,-0.8 -6.91,0.4 -8.68,2.66 -3.53,4.54 -2.88,13.35 0.08,18.97 z m 162.74,-65.46 c 12.5,32.22 22.4,65.7 21.45,100.6 9.81,-46.14 -7.76,-91.18 -29.37,-131.23 -13.87,-25.72 -40.62,-41.63 -67.71,-50.33 -3.08,-0.99 -6.19,-1.87 -9.34,-2.63 -22.41,-5.42 -43.97,-2.71 -65.28,5.63 -23.04,9.02 -44.56,23.93 -58.49,44.66 -2.65,3.96 -5.02,8.11 -7.04,12.44 -0.98,2.11 -1.88,4.27 -2.7,6.46 -0.6,1.63 -1.05,5.54 -2.19,6.73 15.91,-16.62 28.42,-37.6 49.71,-48.13 58.65,-31.26 144.76,-7.91 170.96,55.8 z M 2969.04,2197.2 c -31.18,-36.5 -71.15,-82 -124.34,-74.01 -17.56,1.94 -34.8,7.63 -49.53,17.18 -0.16,0.09 -0.3,0.15 -0.44,0.24 -24.37,13.63 -49.63,27.75 -66.08,48.4 l -0.04,-0.05 c -34.15,39.41 -51.03,92.5 -51.03,92.5 l 25.52,87.76 c 0,0 20.63,-5.27 48.84,-2.41 12.42,2.03 26.8,5.4 41.94,10.1 1.09,0.38 2.16,0.71 3.17,0.96 44.83,14.42 94.73,40.46 115.09,78.63 1.3,2.36 2.6,4.72 3.87,7.07 14.91,27.8 27.78,56.69 38.46,86.36 7.07,19.63 17,42.57 17,63.79 0.45,4.06 0.77,8.14 1,12.22 0.01,0.14 0.03,0.26 0.04,0.4 8.6,96.54 -63.73,167.81 -85.56,229.32 -14.61,47.62 -26.22,99.46 -34.67,148.23 19.13,-51.27 43.21,-100.95 67.46,-149.6 58.8,-111.91 98.62,-233.81 115,-359.26 10.85,-102.1 2.45,-215.52 -65.7,-297.83 z m -231.51,-108.41 c -4.25,-1.66 -8.52,-3.33 -12.95,-4.42 -0.73,-0.17 -1.46,-0.34 -2.21,-0.47 -11.63,-2.26 -22.99,-6.19 -34.61,-8.74 -12.01,-2.65 -24.16,-4.73 -36.36,-6.26 -24.53,-3.1 -49.35,-4.01 -74.05,-2.82 -49.19,2.37 -98.11,12.97 -143.62,31.88 -13.58,5.63 -26.85,12.01 -39.73,19.11 -6.36,3.51 -12.64,7.18 -18.91,10.86 -12.45,7.29 -24.12,14.93 -36.21,22.71 -6.06,3.91 -10.2,7.89 -14.09,12.65 26.68,-5.7 59.51,-8.68 137.33,11.27 50.27,12.88 77.78,22.12 97.65,29.71 53.89,18.27 87.78,21.37 87.78,21.37 0,0 37.66,-82.82 125.97,-121.32 0.88,-0.49 1.59,-0.83 1.73,-0.78 -12.56,-4.92 -25.14,-9.84 -37.72,-14.75 z m -147.68,423.92 c -0.07,-0.19 -0.17,-0.36 -0.28,-0.52 -1.47,-1.98 -5.86,-1.86 -8.1,-1.44 -5.67,1.06 -10.35,5.71 -12.76,10.77 -1.79,3.75 -2.03,10.57 -1.19,14.54 0.1,0.45 0.22,0.91 0.52,1.26 3.21,3.79 14.08,-7.94 15.72,-10.12 2.17,-2.87 7.74,-10.6 6.09,-14.49 z m 46.12,23.34 c -0.36,-0.91 -0.77,-1.84 -1.5,-2.51 -0.07,-0.07 -0.14,-0.14 -0.22,-0.21 -1.19,-0.94 -2.86,-1.11 -4.41,-1 -8.65,0.68 -17.34,2.37 -24.09,8.29 -2.79,2.46 -5.08,5.57 -5.75,9.3 -0.59,3.21 -0.84,9.12 2.51,10.96 1.03,0.57 2.27,0.63 3.44,0.69 7.77,0.32 19.26,2.88 26.55,-0.76 9.44,-4.1 6.47,-17.18 3.47,-24.76 z m -38.25,169.22 c -13.93,-1.02 -32.34,-3.55 -43.79,6.3 -3.2,2.74 -5.74,6.51 -7.31,11.64 -2.94,9.62 0.2,20.81 7.69,27.52 10.99,9.84 29,9.85 42.88,10.29 22.69,0.72 49.14,-0.16 70.39,-9.06 9.24,-3.86 12.6,-12.35 7.85,-21.47 -2.79,-5.35 -7.72,-9.36 -13.12,-12.05 -5.4,-2.7 -11.3,-4.19 -17.19,-5.56 -15.6,-3.63 -31.42,-6.43 -47.4,-7.61 z m 250.76,-241.22 c -1.26,-1.51 -2.93,-2.76 -4.81,-3.81 -4.19,-2.32 -9.43,-3.6 -13.57,-4.52 -7.51,-1.65 -15.59,-1.83 -22.87,0.91 -6.21,2.34 -10.84,5.54 -9.97,12.78 2.2,18.18 25.82,24.33 41.11,24.04 7.14,-0.13 12.43,-4.47 13.71,-11.46 1.03,-5.6 0.12,-13.45 -3.6,-17.94 z m -258.09,327.24 c 71.95,25.96 151.9,7.36 219.64,-22.96 44.09,-21.36 93.01,-49.22 106.7,-100.12 -84.53,86.51 -210.15,113.19 -326.34,123.08 z m -380.9,-560.15 c -85.05,53.2 -129.55,164.1 -144.88,248.55 -15.33,84.44 15.29,178.36 15.31,178.33 1.25,5.34 2.55,10.68 4,15.97 l -1.27,-0.4 c -18.78,-36.57 -50.77,-73.93 -51.69,-170.01 0.02,1.62 -18.8,10.7 -20.54,11.79 -4.77,2.97 -11.84,6.12 -15.31,10.47 -4.16,5.2 -5.53,14.4 -6.11,20.8 -1.33,14.68 2.47,29.48 8.72,42.83 3.8,8.12 8.53,15.74 13.58,23.16 -0.89,-5.81 -1.6,-12 -1.92,-18.34 -1.4,-27.75 7.06,-37.42 7.06,-37.42 0,0 -4.84,45.98 43.06,117.78 9.18,10.49 18.72,20.67 29.17,30.11 12.56,11.34 25.65,22.15 39.59,31.77 11.4,7.87 24.86,12.48 36.13,20 11.13,7.43 22.23,14.85 32.95,22.57 -76.3,-16.22 -139.23,-71.08 -185.05,-132.02 -13.82,-18.37 -24.58,-38.7 -38.12,-57.41 -4.12,-5.69 -11.73,-12.48 -18.69,-6.21 -4.44,4 -3.6,12.69 -3.78,18.14 -0.54,17.04 2.75,33.97 8.68,49.91 11.66,31.33 33,61.42 56.66,84.93 39.25,39.02 85.95,69.97 135.1,94.9 35.02,16.87 66.33,40.13 97.6,62.98 35.92,26.25 73.56,50.1 110.66,74.64 18.11,11.97 36.21,24 53.77,36.79 8.75,6.38 17.38,12.94 25.79,19.77 4.03,3.28 8.02,6.62 11.95,10.03 2.92,2.54 8.02,9.36 11.61,10.44 -12.31,-3.7 -23.67,-9.77 -35.06,-15.6 -11.15,-5.71 -22.17,-9.07 -34.05,-13.18 6,7.32 12.69,14.06 19.97,20.1 5.75,4.78 11.89,9.14 18.6,12.44 16.55,8.16 35.5,9.51 53.9,10.72 -9.59,10.27 -22.65,17.24 -36.52,19.47 14.26,9 29.39,16.61 45.11,22.7 14.44,5.59 27.78,10.49 39.36,21.06 13.53,12.34 27.06,24.61 39.42,38.17 41.09,48.32 66.37,108.4 80,169.93 12.14,54.74 15.33,111.12 14.51,167.19 -0.24,16.46 -1.41,34.43 -12.46,46.63 -0.33,-45.97 -1.46,-91.93 -3.36,-137.86 -2.43,-58.37 -25.62,-104.13 -50.99,-155.4 -15.57,-31.46 -29.95,-66.11 -59.31,-85.36 -22.22,-14.57 -49.72,-17.96 -76.15,-20.71 18.37,14.29 32.03,33.19 41.94,54.1 8.07,17.02 12.95,34.86 18.81,52.68 4.53,13.78 10.21,25.14 13.22,39.77 7.56,36.75 13.88,74.33 9.8,111.94 -4.51,37.59 -8.38,77.01 -27.54,110.49 -24.54,35.54 -64.82,57.62 -106.06,67.6 -20.58,4.97 -42.61,3.96 -63.44,1.08 -20.38,-2.82 -40.88,-5.07 -61.19,-8.64 -42.17,-7.41 -83.73,-18.34 -124.08,-32.66 -18.61,-6.61 -35.45,-17.24 -52.99,-26.34 -35.89,-18.6 -72.34,-36.94 -111.47,-47.74 -9.38,-2.58 -18.89,-4.73 -28.49,-6.33 1.79,0.33 5.96,8.9 6.9,10.31 6.22,9.29 12.45,18.58 18.68,27.87 36.57,54.5 73.14,109.03 110.51,162.98 10.74,15.49 25.56,29.62 30.9,48.18 3.64,12.65 1.8,30.76 -9.63,39.33 -2.42,2.45 -5.12,4.83 -8.08,6.64 0,0 28.79,117.1 51.13,116.66 22.34,-0.44 49.02,-50.12 98.7,-61.66 64.98,-12.66 128.07,-34.5 187.9,-62.68 16.78,-8.23 33.8,-18.2 43.3,-34.98 17.65,-29.61 43.93,-52.8 61.26,-82.63 13.93,-20.9 21.21,-45.04 30.78,-68.08 -6,48.21 -28.17,92.45 -54.76,132.34 -14.02,18.45 -33.72,31.42 -47.89,49.71 24.54,-11.71 44.72,-30.71 64.67,-48.84 42.58,-42.34 58.8,-102.18 75.83,-157.9 1.58,10.21 3.08,20.42 4.59,30.55 -18.76,65.62 -48.92,131.55 -101.24,177.14 -22.32,18.68 -48.83,31.11 -75.19,42.9 31.89,5.7 64.27,-0.48 96.24,-2.61 87.5,-4.65 172.7,-26.91 255.5,-54.49 80.77,-26.9 164.71,-53.11 242.86,-86.8 64.86,-27.98 146.08,-77.45 143.74,-158.29 -0.75,-25.96 1.13,-43.71 4.34,-57.33 -32.98,21.11 -73.27,33.92 -73.27,33.92 0,0 37.42,-22.14 91.56,-78.56 1.46,-3.25 2.87,-6.66 4.18,-10.38 2.59,-7.44 4.43,-14.84 5.73,-21.82 -6.07,-2.26 -13.29,0.17 -19.44,2.86 -81.61,35.78 -161.78,124.95 -259.45,94.66 -31.1,-11.08 -51.21,-39.57 -67.27,-66.96 -1.83,-0.16 -5.63,-0.4 -7.45,-0.55 5.17,0.44 10.14,46.88 10.72,52.33 1.93,18.29 2.3,36.7 1.99,55.07 -0.5,29.57 -3.18,59.13 -8.2,88.28 -2.56,14.85 -5.73,29.58 -9.52,44.15 -1.66,6.31 -3.26,12.37 -6.04,18.27 -2.45,5.21 -8.93,11.33 -10.35,16.53 13.35,-48.62 14.61,-101.28 11.24,-151.37 -3.43,-50.95 -13.44,-101.56 -27.59,-150.57 -12.06,-41.75 -21.13,-84.44 -25.43,-127.71 -4.32,-43.38 -2.06,-86.28 1.31,-129.54 5.69,-72.94 14.78,-147.42 33.13,-218.4 1.11,-4.26 2.26,-8.5 3.58,-12.7 13.77,-44.12 18,-68.76 -10.3,-69.24 -1.03,0.54 -2.06,1.1 -3.08,1.64 -85.17,36.96 -182.21,57.7 -274.01,35.3 -24.41,-6.23 -46.12,-18.36 -64.42,-34.49 -0.32,-0.28 -0.63,-0.57 -0.96,-0.86 -11.88,-10.63 -22.26,-22.97 -31.01,-36.45 -11.24,-19.52 -18.57,-43.16 -21.2,-70.42 0.12,0.02 0.24,0.05 0.36,0.07 l -0.53,-1.86 c -2.49,-28.18 -0.01,-60.12 8.31,-95.27 22.4,-94.55 46.89,-148.05 187.88,-222.79 -0.39,0.21 -4.17,-37.47 -4.44,-40.38 -1.3,-13.61 -4.59,-27.38 -12.91,-38.52 -11.39,-15.22 -29.98,-22.93 -47.77,-29.61 -18.8,-7.06 -37.75,-13.72 -56.87,-19.82 -52.96,-16.91 -107.5,-29.74 -162.98,-34.55 -49.72,-4.32 -108.05,-7.21 -152.05,20.32 z m -302.76,393.73 c 0.86,3.08 -27.21,31.6 -29.66,34.82 -15.82,20.74 -33.69,44.47 -43.24,68.6 -11.84,29.94 -15.58,66.57 -19.74,98.31 -15.06,115.03 -11.56,250.6 58.22,348.65 33.25,46.71 94.76,72.25 151.61,71.62 1.53,-0.01 10.17,-21.74 11.08,-23.52 6.76,-13.31 13.89,-26.83 22.36,-39.14 42.2,-61.36 123.88,-93.77 196.9,-90.65 28.72,1.23 57.13,9.16 81.14,25.24 11.2,7.51 21.23,16.68 29.89,27.01 16.77,-4.84 23.67,-23.6 27.12,-38.96 1.99,-8.86 3.1,-17.89 3.85,-26.93 0.97,-11.38 1.28,-21.75 -3.78,-32.37 -5.97,-12.51 -16.43,-23.49 -27.16,-32.11 -33.7,-27.05 -80.56,-32.54 -122.35,-30.69 -47.76,2.12 -94.65,15.96 -136.49,39.03 -2.27,1.25 -4.46,2.63 -6.69,3.96 2.78,-1.66 5.34,-5.81 7.61,-8.16 2.74,-2.85 5.53,-5.65 8.37,-8.39 5.83,-5.64 11.87,-11.06 18.12,-16.23 21.52,-17.78 46.06,-33.27 72.19,-43.32 7.81,-3 15.94,-5.3 24.26,-6.32 8.49,-1.04 17.11,-0.4 25.65,-0.64 -75.33,-62.01 -169.24,-96.16 -242.89,-159.55 -17.58,-15.13 -33.56,-32.02 -48.79,-49.51 -11.37,-13.04 -20.64,-25.84 -28.42,-39.06 -12.84,-21.8 -21.64,-44.72 -29.16,-71.69 z m 282.29,699.97 c 42.27,20.26 74.33,-54.69 36.34,-74.8 -39.58,-13.69 -77.33,53.35 -36.34,74.8 z m 90.47,-185.61 c 69.18,30.71 96.01,116.19 77.57,186 23.35,-38.31 31.1,-88.88 7.92,-129.09 -16.94,-29.36 -37.79,-60.38 -69.14,-75.78 -47.48,-23.33 -104.66,-2.7 -145.44,24.97 -40.13,27.22 -58.02,76.37 -62.92,122.83 9.97,-38.46 27.62,-76.69 59.36,-102.1 36.82,-29.47 86.41,-52.08 132.65,-26.83 z m 211.86,193.01 c 2.5,12.65 4.62,29.92 4.62,52.37 0,18.82 -4.03,37.58 -10.02,55.36 -8.8,26.12 -21.89,51.42 -40.33,72.21 -6.19,6.97 -13.81,15.2 -22.36,19.29 -6.56,3.14 -12.59,6.81 -14.67,14.51 0.02,-0.1 14.41,-0.51 15.79,-0.68 14.16,-1.76 26.11,-6.1 36.71,-15.98 10.69,-9.97 18.85,-22.8 25.06,-35.93 10.82,-22.9 16.97,-47.99 20.51,-72.99 1.86,-13.14 1.97,-26.29 3.24,-39.45 5.14,-53.19 -9.1,-107.32 -22.17,-159.17 -3.4,-16.78 -12.9,-32.53 -28.25,-40.92 0.25,0.14 0.52,1 0.66,1.26 0.22,0.42 0.44,0.84 0.66,1.26 0.43,0.84 0.85,1.69 1.27,2.54 0.85,1.73 1.67,3.47 2.47,5.23 1.56,3.46 3.02,6.97 4.38,10.52 3.04,7.94 5.59,16.08 7.76,24.31 2.18,8.26 3.99,16.6 5.58,24.99 1.58,8.41 2.94,16.87 4.2,25.33 0.64,4.23 1.25,8.46 1.87,12.69 0.63,4.43 1.51,8.82 2.16,13.26 -2,-1.83 -3.96,-3.71 -5.88,-5.63 -0.6,-0.6 -1.2,-1.21 -1.75,-1.86 -0.85,-1 -1.59,-2.09 -2.32,-3.18 -1.52,-2.24 -3.11,-4.43 -4.59,-6.68 -4.7,-7.12 -7.52,-15.23 -10.9,-23 -6.9,-15.91 -12.89,-32.21 -17.91,-48.81 0.93,10.24 -0.41,20.68 -3.88,30.36 -4.53,-10.8 -12.54,-20.12 -22.54,-26.23 5.82,13.25 7.11,28.45 3.62,42.5 1.1,-4.44 -9.19,-18.36 -11.69,-22.09 -4.43,-6.6 -11.04,-15.75 -18.86,-18.2 -0.16,11.27 4.49,23.92 5.62,35.42 1.24,12.72 1.51,25.54 0.79,38.3 -2.14,38.28 -11.45,75.05 -36.87,104.44 -21.87,25.29 -52.7,43.2 -86.52,44.86 -29.16,1.43 -58.06,-3.13 -86.01,-11.09 32.03,1 66.56,-7.02 91.76,-28.54 -4.81,2.03 -13.46,0.98 -18.7,1.24 -6.99,0.35 -13.99,0.57 -21,0.57 -13.54,0 -27.12,-0.77 -40.52,-2.85 -48.98,-7.6 -87.91,-39.63 -126.16,-68.68 -5.7,-4.33 -12.85,-7.63 -18.01,-12.4 l -1.64,-1.96 c 1.27,2.68 2.59,5.37 3.94,8.05 19.26,39.53 26.29,56.63 43.58,71.96 -7.95,-4.39 -15.53,-9.38 -22.43,-15.34 -17.18,-14.87 -30,-33.74 -40.73,-53.6 -3.67,-6.82 -7.06,-13.79 -10.78,-20.59 -0.07,-0.13 -0.1,-0.3 -0.01,-0.4 -0.79,-1.38 -1.57,-2.76 -2.36,-4.14 -3.31,-5.78 -7.19,-13.71 -13.71,-16.43 -16.19,-6.76 -98.23,-52.7 -132.72,-51.18 -34.49,1.52 -11.5,66.9 -1.44,110.64 7.63,33.21 34.12,59.93 78.35,78.45 0.11,0.04 0.23,0.08 0.34,0.11 53.68,18.06 106.84,37.66 159.33,58.9 48.79,19.75 96.76,42.37 149.34,50.12 38.37,5.67 79.24,5.56 116.4,-6.69 43.41,-14.31 68.62,-44.67 85.77,-85.9 1.29,1.43 2.54,2.95 3.85,4.34 1.96,-12.21 4.61,-24.3 7.52,-36.34 6.92,-23.12 10.21,-42.92 9.74,-50.8 0.22,-6.88 0.66,-20.2 0.84,-27.66 z m -761.73,-138.95 c -16.41,-32.88 -31.45,-66.45 -48.23,-99.14 -8.77,-17.08 -17.4,-35.84 -34.26,-46.38 -11.55,-7.23 -26.35,-9.86 -39.12,-5.14 -18.63,6.9 -43.42,34.02 -54.5,50.41 -16.27,24.06 -32.17,48.37 -47.67,72.92 -39.66,62.82 -71.29,133.64 -116.25,192.72 -55.61,73.05 -131.75,171.67 -152.26,250.38 -24.62,94.52 -42.08,165.28 66.88,198.9 59.62,18.41 118.44,39.29 177.53,59.29 49.15,16.64 108.66,45.26 161.44,36.94 1.44,-0.23 2.89,-0.48 4.32,-0.75 43.55,-8.36 81.07,-38.86 103.4,-77.18 22.33,-38.31 30.5,-83.7 29.11,-128.02 -0.09,-3.21 -0.21,-6.58 1.24,-9.44 1.46,-2.86 5.08,-4.9 7.95,-3.47 1.54,0.77 2.51,2.31 3.37,3.8 5.53,9.59 9.46,20 13.27,30.39 31.1,84.72 51.51,178.78 114.47,247.14 34.51,37.44 84.85,76.62 138.83,61.58 35.86,-26.6 40.61,-74.64 45.27,-115.72 4.11,-36.12 3.82,-70.83 -17.34,-102.07 -3.1,-4.57 -7.6,-9.39 -13.07,-8.65 -6.89,0.93 -9.34,9.54 -9.94,16.47 -2.21,25.46 -0.67,51.03 1.53,76.44 1.58,18.25 11.39,51.93 -0.67,68.01 -4.5,5.99 -12.35,9.52 -19.72,8.19 -16.03,-2.88 -31.05,-25.27 -40.83,-36.93 -13.64,-16.24 -25.87,-33.61 -37.11,-51.58 -29.13,-46.55 -52.4,-96.77 -77.48,-145.52 -16.82,-32.67 -24.46,-68.5 -32.53,-104.17 -16.23,-71.81 -27.27,-143.91 -46.28,-215.17 -18.67,-69.96 -41.22,-139.16 -71.96,-204.82 -3.04,-6.51 -6.17,-12.99 -9.39,-19.43 z m 2088.54,85.08 c -45.19,37.68 -98.23,64.43 -146.59,97.6 -82.23,53.03 -150.53,125.06 -208.47,203.25 -13.27,18.1 -27.51,35.84 -43.36,51.89 -0.08,0.1 -0.13,0.18 -0.21,0.27 -19.22,22.6 -39.22,41.86 -66.44,53.63 29.53,-6.9 58.4,-17.1 87.13,-26.56 -7.44,33.01 -41.95,47.73 -70.04,59.52 -45.43,20.11 -97.36,18.76 -144.38,5.07 -2.92,23.11 -23.74,45.59 -48.44,41.47 -53.89,-6.96 -90.47,-76.54 -149.19,-56.19 -103.77,44.95 -206.82,94.58 -318.26,117.61 -147.14,34.43 -298.95,28.34 -448.86,30.24 -23.74,31.97 -52.31,59.67 -77.88,89.91 -27.78,48.12 -51.37,108.59 -109.46,126.8 -58.26,13.62 -116.12,-10.45 -170.57,-28.57 -77.81,-29.29 -157.19,-54.22 -237.69,-74.88 -113.26,-30.31 -225.89,-63.16 -338.6,-95.38 -48.36,-15.35 -99.57,-29.28 -139.07,-62.68 -29.12,-26.28 -29.44,-69.02 -29.44,-105.27 1.11,-112.23 56.59,-214.02 113.26,-307.57 39.58,-66.41 91.18,-127.83 112.95,-203.26 20.66,-69.1 9.58,-145.16 41.63,-211.25 22.24,-47.81 77.8,-78.91 130.28,-67.28 66.81,9.9 115.88,61.66 159.8,108.68 -11.79,-71.95 -0.55,-145.56 20.66,-214.74 27.47,-93.16 81.69,-175.24 140.41,-251.46 -26.11,-53.82 -46.14,-110.26 -63.71,-167.39 -18.28,-58.98 -55.64,-109.23 -78.91,-166.07 -31.82,-77.96 -56.99,-160.66 -54.62,-245.75 -3.71,-134.8 34.12,-270.22 110.02,-381.89 75.11,-108.36 149.91,-217.36 237.14,-316.45 45.59,-51.89 90.74,-105.09 145.17,-147.98 -21.26,57.57 -54.73,114.7 -101.39,181.28 -23.94,30.82 -46.81,62.5 -69.35,94.37 93.71,-71.08 196.05,-137.25 263.65,-235.63 40.44,-58.25 50.97,-130.2 60.86,-198.741 24.7,93.791 62.37,183.221 89.76,276.071 -34.35,-15.83 -52,-51.13 -74.88,-79.23 -20.82,97.59 -14.4,201.75 -58.41,293.57 -37.12,82.71 -99.81,161.86 -189.25,189.95 107.33,-63.63 175.48,-181.01 188.69,-303.85 4.44,-33.16 -0.07,-66.65 -0.07,-99.97 -3.8,4.04 -7.6,7.92 -11.4,11.72 -63.72,66.72 -138.67,120.86 -209.59,179.35 -58.41,46.78 -123.47,85.56 -176.03,139.3 -72.34,75.83 -109.86,177.86 -126.88,279.64 -17.33,90.94 -19.86,186.71 7.13,276.08 15.59,51.12 33.64,101.62 55.33,150.46 1.26,-78.83 21.68,-155.22 38.22,-231.75 3.48,-11.64 4.75,-25.09 14.41,-33.8 -28.22,113.99 -22.61,344.36 15.6,431.76 0.01,0.03 0.03,0.07 0.04,0.1 0.02,0.05 0.04,0.1 0.06,0.15 h 0.01 c 7.86,20.07 18.93,38.8 34.23,55.24 3.67,-0.8 7.27,-1.66 10.81,-2.59 41.28,-31.92 80.72,-52.03 98.35,-60.3 16.09,-59.44 82.77,-261.02 254.71,-296.11 50.5,-71.64 122.71,-116.54 200.46,-136.4 -13.99,-3.73 -28.33,-6.48 -41.35,-6.91 -47.69,-1.59 -84,-3.13 -84,-3.13 0,0 83.76,-17.38 180.14,0.18 6.47,-0.67 12.95,-1.19 19.45,-1.54 24.98,-1.34 50.81,-0.02 76.36,3.47 -80.53,-83.44 -189.26,-94.39 -189.26,-94.39 180.48,5.07 207.34,46.14 266.87,112.24 34.89,11.48 66.43,27.08 91.21,45.69 -11.1,-48.97 -48.56,-119.7 -80.58,-157.93 0,0 84.35,31.1 168.89,179.64 15.83,3.37 32.92,9.04 49.73,18.22 27.89,-22.61 35.88,-72.47 35.88,-72.47 10.09,30.25 5.6,71.92 -6.27,93.08 4.4,3.84 8.67,8.06 12.84,12.6 48.28,-52.3 61.2,-146.48 61.2,-146.48 2.08,64.54 -10.89,128.21 -38.81,176.71 4.08,6.9 7.92,14.34 11.43,22.35 0,0 35.48,-44.36 47.65,-106.92 0.06,-0.31 0.1,-0.64 0.16,-0.95 20.9,-78.44 19.31,-162.7 9.16,-242.92 -8.15,-67.83 -30,-133.69 -62.84,-193.44 -15.52,-27.54 -32.69,-55.25 -57.94,-75.03 47.8,104.62 86.98,218.36 77.73,335.03 -18.53,-28.41 -15.29,-65.92 -25.01,-98.22 -1.18,-5.95 -2.46,-11.86 -3.81,-17.76 -12.91,-40.84 -25.15,-84.59 -42.27,-129.46 -7.91,-19.39 -16.29,-38.6 -24.92,-57.68 -23.39,-47.68 -54.83,-95.74 -100.76,-142.15 -15.51,-14.71 -31.36,-29 -47.48,-43 -16.74,-13.67 -28.31,-23.52 -35.71,-30.29 -84.41,-70.01 -173.37,-134.71 -252.33,-211.11 -67.83,-67.68 -135.26,-140.18 -171.04,-230.649 -2.27,-7.52 -7.91,-19.192 -7.63,-28.02 144.98,196.669 253.06,250.579 353.78,330.519 0.99,0.78 1.9,1.48 2.85,2.2 36.87,29.81 74.11,59.15 111.34,88.36 44.16,34.35 85.56,72.26 130.83,105.11 -31.34,-67.2 -81.37,-123.08 -123.31,-183.63 -13.08,-19.79 -29.92,-38.46 -38.12,-60.91 72.91,73.17 208.24,215.24 293.33,342.78 39.91,68.83 73.98,140.93 93.28,218.36 28.41,121.97 10.84,250.91 -37.59,365.35 -16.31,46.31 -44.25,87.78 -56.6,135.52 11.73,35.67 18.12,72.77 25.88,109.43 3.32,15.7 3.12,31.03 4.1,47.11 0.8,13.07 -2,43.99 6.12,54.7 34.5,45.51 71.79,89.44 99.4,139.69 44.25,79.55 73.38,167.17 89.29,256.61 13.77,73.53 8.94,148.96 19.78,222.8 14.49,27.07 43.77,42.51 69.98,56.43 18.75,-105.66 15.83,-214.01 34.03,-319.92 9.81,-51.29 30.23,-100.04 55.63,-145.55 11.72,-19.71 24.23,-40.37 44.17,-52.87 37.6,-0.24 51.61,41.47 69.34,67.59 43.06,66.72 68.94,142.86 114.69,208.01 60.7,86.74 120.14,177.29 150.07,279.95 8.86,29.91 8.62,66.88 -18.29,87.61"
         style="fill:#341f1d;fill-opacity:1;fill-rule:nonzero;stroke:none"
         id="path90" />
      <path
         d="m 2633.85,3370.42 c 7.6,34.2 8.79,69.66 10.12,104.57 -13.92,-35.23 -13.45,-73.93 -18.12,-111.05 1.98,1.66 6.02,4.9 8,6.48"
         style="fill:#341f1d;fill-opacity:1;fill-rule:nonzero;stroke:none"
         id="path92" />
      <path
         d="m 2282.42,2573.79 c -2.37,14.48 -16.86,25.96 -31.02,28.41 -9.17,1.59 -18.22,-4.78 -24.02,-11.23 -7.96,-8.85 -9.25,-16.08 -4.23,-26.91 5.77,-12.45 18.67,-17.53 31.77,-15.22 11.01,1.94 29.74,11.31 27.5,24.95"
         style="fill:#341f1d;fill-opacity:1;fill-rule:nonzero;stroke:none"
         id="path94" />
      <path
         d="m 2321.81,2526.9 c -11.5,-0.78 -28.48,-15.05 -28.7,-27.59 -0.4,-22.48 31.03,-41.63 48.2,-23.27 7.39,5.12 12.16,13.2 12.23,22.32 0.12,16.85 -15.43,29.65 -31.73,28.54"
         style="fill:#341f1d;fill-opacity:1;fill-rule:nonzero;stroke:none"
         id="path96" />
      <path
         d="m 2939.47,2413.24 c -11.5,-0.78 -28.47,-15.06 -28.7,-27.6 -0.39,-22.47 31.03,-41.63 48.2,-23.26 7.4,5.13 12.16,13.2 12.23,22.33 0.12,16.83 -15.43,29.64 -31.73,28.53"
         style="fill:#341f1d;fill-opacity:1;fill-rule:nonzero;stroke:none"
         id="path98" />
      <path
         d="m 2820.74,2272.64 c -11.5,-0.78 -28.47,-15.06 -28.7,-27.6 -0.39,-22.48 31.03,-41.63 48.2,-23.26 7.4,5.12 12.16,13.19 12.23,22.31 0.12,16.85 -15.43,29.65 -31.73,28.55"
         style="fill:#341f1d;fill-opacity:1;fill-rule:nonzero;stroke:none"
         id="path100" />
      <path
         d="m 2912.89,2297.92 c -18.43,-12.89 -15.46,-49.57 9.49,-52.68 8.5,-2.96 17.83,-2.08 25.25,3.23 13.7,9.8 14.93,29.9 4.45,42.44 -7.38,8.85 -28.92,14.2 -39.19,7.01"
         style="fill:#341f1d;fill-opacity:1;fill-rule:nonzero;stroke:none"
         id="path102" />
      <path
         d="m 2189.82,2501.92 c -8.71,-6.48 -19.02,-15.98 -17.16,-27.95 3.29,-21.13 35.25,-27.51 48.26,-12.1 22.48,17.96 -7.28,57.78 -31.1,40.05"
         style="fill:#341f1d;fill-opacity:1;fill-rule:nonzero;stroke:none"
         id="path104" />
      <path
         d="m 2295.72,2412.32 c -13.75,4.6 -43.31,2.57 -44.67,-17.42 -0.44,-6.61 -0.87,-13.38 0.91,-19.76 7.39,-26.42 47.45,-26.76 62.83,-8.57 20.66,15.12 -1.82,39.97 -19.07,45.75"
         style="fill:#341f1d;fill-opacity:1;fill-rule:nonzero;stroke:none"
         id="path106" />
      <path
         d="m 2125.67,1930.5 c 23.37,-38.98 51.08,-76.12 85.18,-106.38 31.54,-28.01 69.1,-46.77 110.96,-52.92 -3.64,0.53 -10.22,7.99 -13.21,10.32 -4.56,3.57 -9.34,6.75 -13.89,10.2 -9.86,7.47 -18.91,16.72 -27.49,25.58 -23.57,24.35 -43.78,51.45 -61.23,80.29 -21.57,35.63 -38.94,73.92 -53.28,112.96 -11.8,32.15 -20.56,65.42 -26.06,99.23 -3.2,-51.73 -2.55,-105.18 16.92,-153.21 -12.54,17.61 -21.63,37.33 -30.4,56.99 -8.92,20.01 -18.19,39.41 -25.19,60.25 -12.71,37.87 -27.89,75.34 -34.8,114.91 -2.7,15.41 -4.14,31.15 -9.05,46.01 -4.27,-25.2 -1.35,-51 1.58,-76.38 1.22,-10.65 2.45,-21.33 4.56,-31.85 13.46,-67.27 37.97,-132.4 72.76,-191.56 0.88,-1.48 1.76,-2.97 2.64,-4.44"
         style="fill:#341f1d;fill-opacity:1;fill-rule:nonzero;stroke:none"
         id="path108" />
      <path
         d="m 2549.16,1553.15 c -4.28,29.21 -1.58,60.63 -16.71,86.99 7.44,-71.39 0.71,-142.79 -5.93,-213.94 24.61,36.41 27.62,84.29 22.64,126.95"
         style="fill:#341f1d;fill-opacity:1;fill-rule:nonzero;stroke:none"
         id="path110" />
      <path
         d="m 2518.53,1317.21 c -25.89,-39.5 -59.05,-73.14 -90,-108.6 -21.29,-23.74 -36.09,-55.8 -27.86,-88.25 24.06,11.64 38.78,34.91 57.86,52.64 21.53,22.63 47.17,41.71 65.38,67.27 13.93,30.48 20.42,64.04 23.19,97.28 -11.32,-3.96 -22.64,-9.26 -28.57,-20.34"
         style="fill:#341f1d;fill-opacity:1;fill-rule:nonzero;stroke:none"
         id="path112" />
      <path
         d="m 2517.18,1977.3 c -87.43,-27.37 -190.61,-15.88 -240.13,23.85 0,0 43.19,-57.4 127.09,-59.17 83.89,-1.77 113.04,35.32 113.04,35.32"
         style="fill:#341f1d;fill-opacity:1;fill-rule:nonzero;stroke:none"
         id="path114" />
      <path
         d="m 1843.55,1786.83 c 0,0 45.62,-114.59 108.1,-182.04 62.48,-67.45 199.62,-124.03 268.53,-229.42 0,0 -21.46,63.17 -62.82,111.61 -41.35,48.44 -90.45,66.11 -155.68,116.87 -65.23,50.76 -158.13,182.98 -158.13,182.98"
         style="fill:#341f1d;fill-opacity:1;fill-rule:nonzero;stroke:none"
         id="path116" />
      <path
         d="m 2975.03,3259.49 c -2.67,-0.72 -5.34,-1.52 -8,-2.45 -2.7,-0.96 -5.28,-1.97 -7.77,-3.02 -37.99,-16.14 -50.5,-43.34 -50.5,-43.34 10.5,11.01 29.23,20.33 50.5,27.67 28.47,9.83 61.46,16.07 85.67,18.01 5.12,0.4 9.91,0.66 14.11,0.68 0,0 -42.32,13.65 -84.01,2.45"
         style="fill:#341f1d;fill-opacity:1;fill-rule:nonzero;stroke:none"
         id="path118" />
    </g>
  </g>
</svg>
